#!OML:ASF G:\JayActor3\Patient Classification 1\Patient 1\Session 6\male.ASF
:FULLY-SPECIFIED
:DEGREES
1705
root 0.433762 16.2659 -22.1327 176.444 -34.2144 -176.27
lowerback -5.08407 0.541299 -1.06965
upperback 6.04035 0.734032 -1.05139
thorax 9.23754 0.250438 -0.43197
lowerneck -5.09841 -5.53431 -5.46365
upperneck 22.3596 -9.65498 6.46
head 8.33132 -4.88734 2.14275
rclavicle 6.50026e-014 1.59028e-015
rhumerus -41.7917 6.5417 -91.1853
rradius 94.185
rwrist -27.1988
rhand -29.2849 -20.7092
rfingers 7.12502
rthumb -2.62686 -50.6728
lclavicle 6.50026e-014 1.59028e-015
lhumerus -29.9484 23.4712 70.3473
lradius 22.864
lwrist 22.7566
lhand -14.5453 12.4343
lfingers 7.12502
lthumb 11.6032 42.093
rfemur -7.99666 5.4759 18.6198
rtibia 36.712
rfoot -31.7714 -23.1006
rtoes 0.278226
lfemur -5.08087 9.02993 -18.4215
ltibia 28.475
lfoot -20.9627 7.92697
ltoes 0.68043
1706
root 0.424647 16.2684 -22.123 176.535 -34.8097 -176.248
lowerback -5.08877 0.597741 -1.06953
upperback 6.05916 0.811328 -1.06718
thorax 9.26135 0.288475 -0.438798
lowerneck -5.10501 -5.67117 -5.57634
upperneck 22.2797 -9.83452 6.57705
head 8.32991 -4.96436 2.18293
rclavicle -3.71727e-014 1.43125e-014
rhumerus -41.2826 6.56491 -90.8435
rradius 93.2288
rwrist -27.6424
rhand -29.2441 -20.7694
rfingers 7.12502
rthumb -2.5875 -50.7334
lclavicle -3.71727e-014 1.43125e-014
lhumerus -29.9753 23.5603 70.3232
lradius 22.932
lwrist 22.8845
lhand -14.4061 12.5477
lfingers 7.12502
lthumb 11.7375 42.1988
rfemur -7.95648 5.40593 18.6306
rtibia 36.619
rfoot -32.1459 -23.4092
rtoes 0.565741
lfemur -5.33926 9.06168 -18.4594
ltibia 28.5298
lfoot -20.8141 7.42373
ltoes 0.594477
1707
root 0.415573 16.2709 -22.1132 176.613 -35.397 -176.207
lowerback -5.08782 0.655306 -1.05018
upperback 6.07701 0.887773 -1.07557
thorax 9.28093 0.327205 -0.448663
lowerneck -5.10296 -5.81121 -5.68891
upperneck 22.186 -10.018 6.69775
head 8.32316 -5.04313 2.22416
rclavicle 4.03533e-014 -5.24792e-014
rhumerus -40.7127 6.5852 -90.4742
rradius 92.2283
rwrist -28.0887
rhand -29.2073 -20.8422
rfingers 7.12502
rthumb -2.5519 -50.8067
lclavicle 4.03533e-014 -5.24792e-014
lhumerus -29.9987 23.6051 70.339
lradius 23.0033
lwrist 23.014
lhand -14.2878 12.6562
lfingers 7.12502
lthumb 11.8516 42.3008
rfemur -7.9171 5.3049 18.6493
rtibia 36.5248
rfoot -32.5012 -23.6719
rtoes 0.838185
lfemur -5.59536 9.0961 -18.4794
ltibia 28.5886
lfoot -20.6744 6.9055
ltoes 0.552945
1708
root 0.406588 16.2731 -22.1032 176.675 -35.9722 -176.146
lowerback -5.08232 0.716594 -1.0075
upperback 6.09715 0.966466 -1.07853
thorax 9.30068 0.36839 -0.465569
lowerneck -5.08818 -5.95445 -5.7929
upperneck 22.0717 -10.2037 6.81488
head 8.30715 -5.1229 2.26307
rclavicle -1.09332e-014 4.77083e-015
rhumerus -40.0831 6.58917 -90.0843
rradius 91.1908
rwrist -28.5041
rhand -29.1869 -20.9291
rfingers 7.12502
rthumb -2.53222 -50.8938
lclavicle -1.09332e-014 4.77083e-015
lhumerus -30.0137 23.6054 70.3964
lradius 23.0777
lwrist 23.1587
lhand -14.2421 12.7104
lfingers 7.12502
lthumb 11.8957 42.3525
rfemur -7.87688 5.17175 18.6759
rtibia 36.4297
rfoot -32.8212 -23.8983
rtoes 1.07545
lfemur -5.84721 9.148 -18.4788
ltibia 28.6522
lfoot -20.5428 6.367
ltoes 0.5475
1709
root 0.39769 16.2751 -22.0929 176.699 -36.5262 -176.04
lowerback -5.06183 0.781487 -0.921304
upperback 6.11794 1.04454 -1.06676
thorax 9.31284 0.411763 -0.491438
lowerneck -5.05926 -6.0973 -5.89138
upperneck 21.9411 -10.3842 6.91689
head 8.28203 -5.2015 2.29714
rclavicle 9.00495e-014 1.98785e-014
rhumerus -39.4214 6.60623 -89.6693
rradius 90.1425
rwrist -28.8776
rhand -29.1878 -21.0174
rfingers 7.12502
rthumb -2.53306 -50.9821
lclavicle 9.00495e-014 1.98785e-014
lhumerus -30.0281 23.5487 70.5051
lradius 23.1555
lwrist 23.3735
lhand -14.2995 12.6632
lfingers 7.12502
lthumb 11.8403 42.3085
rfemur -7.83033 5.02109 18.7368
rtibia 36.3348
rfoot -33.1126 -24.0942
rtoes 1.27997
lfemur -6.08604 9.20828 -18.4354
ltibia 28.7185
lfoot -20.4203 5.82588
ltoes 0.571837
1710
root 0.388882 16.2767 -22.0822 176.723 -37.0739 -175.954
lowerback -5.02916 0.844042 -0.848222
upperback 6.13971 1.12015 -1.0536
thorax 9.31874 0.452909 -0.508955
lowerneck -5.01269 -6.239 -5.98717
upperneck 21.793 -10.5585 7.00454
head 8.24688 -5.27875 2.32741
rclavicle -1.10922e-013 -1.51076e-014
rhumerus -38.7351 6.63798 -89.2264
rradius 89.0936
rwrist -29.1939
rhand -29.2086 -21.1022
rfingers 7.12502
rthumb -2.55313 -51.0666
lclavicle -1.10922e-013 -1.51076e-014
lhumerus -30.0474 23.445 70.6591
lradius 23.2453
lwrist 23.6652
lhand -14.4312 12.5396
lfingers 7.12502
lthumb 11.7133 42.1921
rfemur -7.77778 4.84346 18.7698
rtibia 36.2468
rfoot -33.3827 -24.2527
rtoes 1.46337
lfemur -6.30796 9.27922 -18.4095
ltibia 28.779
lfoot -20.3049 5.27219
ltoes 0.630097
1711
root 0.380542 16.2781 -22.0711 176.754 -37.6108 -175.892
lowerback -4.98601 0.904707 -0.793797
upperback 6.16437 1.19438 -1.03919
thorax 9.32133 0.491908 -0.515054
lowerneck -4.96275 -6.37997 -6.07973
upperneck 21.634 -10.7274 7.07901
head 8.20652 -5.35432 2.35354
rclavicle -5.24792e-014 -6.36111e-015
rhumerus -38.0154 6.68505 -88.7558
rradius 88.039
rwrist -29.44
rhand -29.2425 -21.1761
rfingers 7.12502
rthumb -2.58596 -51.1401
lclavicle -5.24792e-014 -6.36111e-015
lhumerus -30.0667 23.312 70.8492
lradius 23.3448
lwrist 24.0233
lhand -14.5964 12.3706
lfingers 7.12502
lthumb 11.554 42.0322
rfemur -7.72474 4.65777 18.7768
rtibia 36.1693
rfoot -33.6422 -24.3854
rtoes 1.64894
lfemur -6.51305 9.36444 -18.4032
ltibia 28.8274
lfoot -20.1938 4.71712
ltoes 0.686265
1712
root 0.372671 16.2792 -22.0594 176.799 -38.1467 -175.864
lowerback -4.93164 0.960002 -0.764941
upperback 6.19082 1.26341 -1.02632
thorax 9.31875 0.526548 -0.509361
lowerneck -4.91631 -6.52052 -6.17022
upperneck 21.4735 -10.8925 7.14102
head 8.16555 -5.42889 2.37546
rclavicle -5.36719e-014 2.78299e-014
rhumerus -37.2722 6.7441 -88.2593
rradius 86.9882
rwrist -29.6125
rhand -29.286 -21.2302
rfingers 7.12502
rthumb -2.62795 -51.1937
lclavicle -5.36719e-014 2.78299e-014
lhumerus -30.0848 23.1363 71.0798
lradius 23.4549
lwrist 24.4762
lhand -14.7673 12.2062
lfingers 7.12502
lthumb 11.3892 41.8769
rfemur -7.67299 4.46245 18.7504
rtibia 36.1053
rfoot -33.8977 -24.4989
rtoes 1.83679
lfemur -6.70151 9.44491 -18.4285
ltibia 28.8574
lfoot -20.0819 4.16333
ltoes 0.768245
1713
root 0.36579 16.2804 -22.0476 176.865 -38.6705 -175.872
lowerback -4.87313 1.0118 -0.769794
upperback 6.21872 1.33067 -1.01469
thorax 9.31457 0.557933 -0.486492
lowerneck -4.87241 -6.65885 -6.25827
upperneck 21.3062 -11.0522 7.19736
head 8.12227 -5.50115 2.39562
rclavicle -1.72943e-014 7.95139e-015
rhumerus -36.5006 6.81247 -87.7385
rradius 85.941
rwrist -29.7268
rhand -29.3276 -21.2614
rfingers 7.12502
rthumb -2.66812 -51.2245
lclavicle -1.72943e-014 7.95139e-015
lhumerus -30.1 22.9452 71.3357
lradius 23.5675
lwrist 24.9795
lhand -14.9064 12.0795
lfingers 7.12502
lthumb 11.255 41.7576
rfemur -7.62898 4.28428 18.6964
rtibia 36.0526
rfoot -34.1687 -24.5937
rtoes 2.06595
lfemur -6.88043 9.53441 -18.4831
ltibia 28.8712
lfoot -19.9661 3.60747
ltoes 0.882912
1714
root 0.359707 16.2817 -22.0356 176.933 -39.1815 -175.883
lowerback -4.81212 1.05964 -0.778877
upperback 6.24711 1.39263 -0.999768
thorax 9.30916 0.5863 -0.45856
lowerneck -4.82558 -6.79289 -6.34524
upperneck 21.1302 -11.2049 7.25276
head 8.07523 -5.57035 2.41618
rclavicle 7.35503e-015 1.51076e-014
rhumerus -35.6988 6.88575 -87.1979
rradius 84.8947
rwrist -29.7989
rhand -29.3274 -21.2373
rfingers 7.12502
rthumb -2.66794 -51.2003
lclavicle 7.35503e-015 1.51076e-014
lhumerus -30.1153 22.7506 71.6042
lradius 23.6788
lwrist 25.501
lhand -15.0014 12.0054
lfingers 7.12502
lthumb 11.1634 41.6884
rfemur -7.59373 4.1215 18.6443
rtibia 36.0061
rfoot -34.4403 -24.6915
rtoes 2.30698
lfemur -7.05481 9.61854 -18.5414
ltibia 28.8728
lfoot -19.8468 3.06497
ltoes 1.00759
1715
root 0.354506 16.2832 -22.0236 177.007 -39.678 -175.896
lowerback -4.75205 1.10349 -0.790958
upperback 6.27438 1.44939 -0.982633
thorax 9.30287 0.611883 -0.427334
lowerneck -4.77109 -6.92193 -6.43011
upperneck 20.9415 -11.3501 7.30994
head 8.02228 -5.63619 2.4382
rclavicle -6.34123e-014 3.81667e-014
rhumerus -34.8735 6.9586 -86.6424
rradius 83.8553
rwrist -29.8426
rhand -29.2994 -21.1477
rfingers 7.12502
rthumb -2.64083 -51.1111
lclavicle -6.34123e-014 3.81667e-014
lhumerus -30.1316 22.5745 71.8693
lradius 23.7822
lwrist 25.9873
lhand -15.0308 11.985
lfingers 7.12502
lthumb 11.135 41.6696
rfemur -7.56924 3.97563 18.5978
rtibia 35.9609
rfoot -34.7135 -24.7923
rtoes 2.54483
lfemur -7.2312 9.69 -18.6023
ltibia 28.8679
lfoot -19.7248 2.54613
ltoes 1.13828
1716
root 0.350115 16.2849 -22.0117 177.085 -40.1598 -175.909
lowerback -4.69665 1.14268 -0.805454
upperback 6.30169 1.50013 -0.964596
thorax 9.29922 0.634329 -0.394561
lowerneck -4.71094 -7.04478 -6.5092
upperneck 20.7425 -11.4866 7.36715
head 7.96415 -5.69792 2.46053
rclavicle 1.8487e-014 -6.12257e-014
rhumerus -34.0233 7.03111 -86.0782
rradius 82.8211
rwrist -29.8644
rhand -29.2702 -20.995
rfingers 7.12502
rthumb -2.61267 -50.9587
lclavicle 1.8487e-014 -6.12257e-014
lhumerus -30.1531 22.4528 72.1081
lradius 23.8735
lwrist 26.3486
lhand -14.9735 12.0163
lfingers 7.12502
lthumb 11.1903 41.6979
rfemur -7.55261 3.84471 18.5556
rtibia 35.913
rfoot -34.9874 -24.8934
rtoes 2.78617
lfemur -7.41164 9.75526 -18.6657
ltibia 28.8604
lfoot -19.6003 2.04796
ltoes 1.25539
